<svg width="160" height="160" viewBox="0 0 160 160" fill="none" xmlns="http://www.w3.org/2000/svg">
<path d="M0 26.6667C0 11.9391 11.9391 0 26.6667 0H133.333C148.061 0 160 11.9391 160 26.6667V133.333C160 148.061 148.061 160 133.333 160H26.6667C11.9391 160 0 148.061 0 133.333V26.6667Z" fill="#9DFFDD"/>
<path d="M62.2376 68.3334C62.8385 68.3334 63.3334 68.8219 63.3334 69.4152V109.166C63.3334 111.897 61.0947 114.105 58.3259 114.105H46.0958C45.4949 114.105 45 113.617 45 113.024L45 84.1667C45 76.1569 53.3994 68.3334 62.2376 68.3334Z" fill="#007644"/>
<path d="M41.1038 48.3334C31.7496 48.3334 24.1667 55.9608 24.1667 65.5617C24.1667 66.1677 24.6529 66.6667 25.2433 66.6667C36.1907 66.6667 47.1381 66.6667 58.0855 66.6667C60.8162 66.6667 63.024 64.4281 63.024 61.6592V49.4291C63.024 48.8282 62.536 48.3334 61.9434 48.3334C54.9969 48.3334 48.0503 48.3334 41.1038 48.3334Z" fill="#007644"/>
<path d="M131.318 48.3334C131.966 48.3334 132.5 48.8283 132.5 49.4292V61.6593C132.5 64.4281 130.085 66.6668 127.098 66.6668L91.0767 66.6668C90.4863 66.6668 90 66.1719 90 65.571C90 56.0509 97.583 48.3334 106.937 48.3334L131.318 48.3334Z" fill="#007644"/>
<path d="M81.1667 48.3334H82.1907C82.7833 48.3334 83.2714 48.8282 83.2714 49.4291V61.6592C83.2714 64.4281 81.0636 66.6667 78.3329 66.6667C73.971 66.6667 69.6092 66.6667 65.2473 66.6667C64.6547 66.6667 64.1667 66.1718 64.1667 65.5709C64.1667 56.0508 71.7778 48.3334 81.1667 48.3334Z" fill="#007644"/>
<path d="M90 85.2705C90 75.9163 97.7175 68.3334 107.238 68.3334C107.838 68.3334 108.333 68.8196 108.333 69.41V73.3334H124.86C125.453 73.3334 125.941 73.8347 125.941 74.4433V84.0943C125.941 86.8988 123.733 89.1667 121.002 89.1667H108.333V95.8334H131.318C131.966 95.8334 132.5 96.3283 132.5 96.9292V109.159C132.5 111.928 130.085 114.167 127.099 114.167C120.478 114.167 113.858 114.167 107.238 114.167C97.7175 114.167 90 106.584 90 97.2296V85.2705Z" fill="#007644"/>
</svg>
