<?xml version="1.0" encoding="iso-8859-1"?>
<!-- Uploaded to: SVG Repo, www.svgrepo.com, Generator: SVG Repo Mixer Tools -->
<svg fill="#000000" height="800px" width="800px" version="1.1" id="Capa_1" xmlns="http://www.w3.org/2000/svg" xmlns:xlink="http://www.w3.org/1999/xlink" 
	 viewBox="0 0 470.833 470.833" xml:space="preserve">
<g>
	<path d="M288.676,137.259c-2.926,2.926-2.926,7.686,0,10.612c2.926,2.926,7.686,2.926,10.612,0c2.926-2.926,2.926-7.686,0-10.612
		C296.362,134.333,291.602,134.333,288.676,137.259z"/>
	<path d="M319.217,106.727c-2.916,2.916-2.916,7.662,0,10.578c2.917,2.916,7.662,2.916,10.578,0c2.916-2.916,2.916-7.662,0-10.578
		C326.879,103.811,322.134,103.811,319.217,106.727z"/>
	<g>
		<path d="M426.209,10.334C419.545,3.67,410.682,0,401.253,0c-9.43,0-18.296,3.669-24.97,10.335L247.801,138.82
			c-2.929,2.929-2.929,7.678,0,10.606l1.47,1.47L139.103,261.065l-20.541,2.328c-1.687,0.191-3.259,0.949-4.459,2.149
			l-77.459,77.459c-2.929,2.929-2.929,7.678,0,10.606l46.291,46.291c1.407,1.407,3.314,2.197,5.304,2.197s3.896-0.79,5.304-2.197
			l77.459-77.459c1.083-1.083,1.809-2.473,2.079-3.982l3.497-19.54l110.357-110.358l0.186,0.186
			c1.407,1.407,3.314,2.197,5.304,2.197s3.896-0.79,5.304-2.197l90.94-90.943l-57.389,99.404l-8.122-4.689
			c-3.586-2.073-8.173-0.843-10.245,2.745c-2.071,3.587-0.842,8.174,2.745,10.245l1.324,0.765L238.279,342.59
			c-0.767,1.327-1.107,2.857-0.978,4.384l1.679,19.779l-49.845,86.334l-43.705-25.233l7.499-12.989l24.22,13.981
			c1.182,0.682,2.471,1.006,3.743,1.006c2.592,0,5.113-1.346,6.502-3.752c2.071-3.587,0.842-8.174-2.745-10.245l-24.22-13.981
			l34.712-60.122l19.238-7.565c1.579-0.621,2.901-1.76,3.75-3.229l43.07-74.6c2.071-3.587,0.842-8.174-2.745-10.245
			c-3.59-2.072-8.175-0.842-10.245,2.745l-41.76,72.33l-19.238,7.565c-1.579,0.622-2.901,1.76-3.75,3.23l-39.764,68.873
			c-0.019,0.033-15.008,25.995-15.008,25.995c-0.994,1.723-1.265,3.77-0.749,5.691c0.515,1.921,1.771,3.56,3.494,4.554
			l56.695,32.733c1.15,0.664,2.444,1.005,3.75,1.005c0.65,0,1.303-0.084,1.941-0.255c1.921-0.515,3.56-1.772,4.554-3.495
			l54.771-94.868c0.767-1.327,1.107-2.857,0.978-4.384l-1.679-19.779l77.525-134.279l0.303,0.175c1.15,0.664,2.444,1.005,3.75,1.005
			c0.65,0,1.303-0.084,1.941-0.255c1.921-0.515,3.56-1.772,4.554-3.495l91.512-158.581
			C439.313,39.231,437.522,21.647,426.209,10.334z M164.306,289.977c-1.083,1.083-1.809,2.473-2.079,3.982l-3.497,19.54
			L88.238,383.99l-35.685-35.685l70.302-70.302l20.541-2.328c1.687-0.191,3.259-0.949,4.459-2.149l112.022-112.022l16.45,16.45
			L164.306,289.977z M415.603,49.654L292.424,172.836l-0.181-0.181c-0.01-0.01-27.057-27.057-27.057-27.057
			c-0.01-0.01-1.475-1.475-1.475-1.475L386.887,20.944c3.838-3.833,8.939-5.944,14.366-5.944c5.423,0,10.519,2.11,14.35,5.941
			C423.52,28.857,423.519,41.738,415.603,49.654z"/>
		<path d="M432.032,52.621C431.907,52.923,432.199,52.331,432.032,52.621L432.032,52.621z"/>
	</g>
</g>
</svg>