<?xml version="1.0" encoding="UTF-8" standalone="no"?>
<!-- Created with Inkscape (http://www.inkscape.org/) -->

<svg
   width="500pt"
   height="500pt"
   viewBox="0 0 176.38889 176.38889"
   version="1.1"
   id="svg1"
   xml:space="preserve"
   inkscape:version="1.4.3 (0d15f75042, 2025-12-25)"
   sodipodi:docname="logo.svg"
   xmlns:inkscape="http://www.inkscape.org/namespaces/inkscape"
   xmlns:sodipodi="http://sodipodi.sourceforge.net/DTD/sodipodi-0.dtd"
   xmlns:xlink="http://www.w3.org/1999/xlink"
   xmlns="http://www.w3.org/2000/svg"
   xmlns:svg="http://www.w3.org/2000/svg"><sodipodi:namedview
     id="namedview1"
     pagecolor="#11271f"
     bordercolor="#000000"
     borderopacity="0.25"
     inkscape:showpageshadow="2"
     inkscape:pageopacity="0.0"
     inkscape:pagecheckerboard="0"
     inkscape:deskcolor="#d1d1d1"
     inkscape:document-units="mm"
     inkscape:zoom="0.53432842"
     inkscape:cx="166.56423"
     inkscape:cy="629.7625"
     inkscape:window-width="2560"
     inkscape:window-height="1412"
     inkscape:window-x="0"
     inkscape:window-y="0"
     inkscape:window-maximized="1"
     inkscape:current-layer="g15" /><defs
     id="defs1"><linearGradient
       id="linearGradient3"
       inkscape:collect="always"><stop
         style="stop-color:#000000;stop-opacity:1;"
         offset="0"
         id="stop3" /><stop
         style="stop-color:#000000;stop-opacity:0;"
         offset="1"
         id="stop4" /></linearGradient><clipPath
       clipPathUnits="userSpaceOnUse"
       id="clipPath13"><path
         class="st0"
         d="m 128.11793,100.73928 c 9.7579,-15.592647 1.58245,-36.488682 -16.94347,-40.349723 9.60986,-9.689742 2.07281,-23.988824 -8.43931,-29.05431 C 97.395894,28.763013 95.364541,25.724483 93.592584,22.557474 90.196425,16.505801 88.947112,7.8270008 80.026619,2.885539 73.88221,-0.52444116 65.192983,-1.4313343 60.529157,1.5224972 c -3.137058,1.9825506 0.499844,2.8945235 3.183246,5.2190186 4.450917,3.8610492 4.663826,9.9869612 0.768125,14.9087452 -5.006137,6.339081 -9.031538,7.865796 -13.556485,9.684669 -10.789877,4.331792 -18.220315,19.364568 -8.6152,29.054314 -18.803369,3.920376 -26.817154,25.396564 -16.337314,41.058696 -13.033546,3.26119 -22.7591809,15.76108 -22.7591809,30.72439 0,9.64502 4.0484991,18.26417 10.4102559,24.05828 H 144.4135 c 6.3573,-5.79411 10.41022,-14.41295 10.41022,-24.05828 0,-16.44022 -11.72439,-29.93139 -26.70579,-31.43305 z"
         id="path13"
         style="stroke-width:0.30648" /></clipPath><clipPath
       clipPathUnits="userSpaceOnUse"
       id="clipPath14"><path
         style="fill:#4e4ea8;stroke-width:4.5208"
         d="m 60.968001,254.59218 c 0,0 -68.0693532,106.74511 -68.0693532,110.61269 0,3.86758 64.9752932,68.06937 64.9752932,68.06937 l 82.766139,-61.10772 105.97161,-128.40356 31.71411,-9.28219 -3.09404,37.90225 9.28218,19.33789 L 480.98685,154.03517 524.30369,-69.510762 181.6364,24.858112 Z"
         id="path15" /></clipPath><linearGradient
       inkscape:collect="always"
       xlink:href="#linearGradient3"
       id="linearGradient4"
       x1="28.457239"
       y1="213.62325"
       x2="442.43097"
       y2="213.62325"
       gradientUnits="userSpaceOnUse" /></defs><style
     type="text/css"
     id="style1">
<![CDATA[
	.st0{fill:#000000;}
]]>
</style><g
     id="g15"
     transform="translate(-1.5502874,3.7251409)"><g
       style="fill:none"
       id="g12"
       transform="matrix(0.84627632,0,0,0.84627632,7.5502688,33.679563)"
       clip-path="url(#clipPath13)"><path
         d="M 0,26.6667 C 0,11.9391 11.9391,0 26.6667,0 H 133.333 C 148.061,0 160,11.9391 160,26.6667 V 133.333 C 160,148.061 148.061,160 133.333,160 H 26.6667 C 11.9391,160 0,148.061 0,133.333 Z"
         fill="#9dffdd"
         id="path7" /><path
         d="m 62.2376,68.3334 c 0.6009,0 1.0958,0.4885 1.0958,1.0818 v 39.7508 c 0,2.731 -2.2387,4.939 -5.0075,4.939 H 46.0958 C 45.4949,114.105 45,113.617 45,113.024 V 84.1667 c 0,-8.0098 8.3994,-15.8333 17.2376,-15.8333 z"
         fill="#007644"
         id="path8" /><path
         d="m 41.1038,48.3334 c -9.3542,0 -16.9371,7.6274 -16.9371,17.2283 0,0.606 0.4862,1.105 1.0766,1.105 10.9474,0 21.8948,0 32.8422,0 2.7307,0 4.9385,-2.2386 4.9385,-5.0075 V 49.4291 c 0,-0.6009 -0.488,-1.0957 -1.0806,-1.0957 -6.9465,0 -13.8931,0 -20.8396,0 z"
         fill="#007644"
         id="path9" /><path
         d="m 131.318,48.3334 c 0.648,0 1.182,0.4949 1.182,1.0958 v 12.2301 c 0,2.7688 -2.415,5.0075 -5.402,5.0075 H 91.0767 C 90.4863,66.6668 90,66.1719 90,65.571 90,56.0509 97.583,48.3334 106.937,48.3334 Z"
         fill="#007644"
         id="path10" /><path
         d="m 81.1667,48.3334 h 1.024 c 0.5926,0 1.0807,0.4948 1.0807,1.0957 v 12.2301 c 0,2.7689 -2.2078,5.0075 -4.9385,5.0075 -4.3619,0 -8.7237,0 -13.0856,0 -0.5926,0 -1.0806,-0.4949 -1.0806,-1.0958 0,-9.5201 7.6111,-17.2375 17,-17.2375 z"
         fill="#007644"
         id="path11" /><path
         d="m 90,85.2705 c 0,-9.3542 7.7175,-16.9371 17.238,-16.9371 0.6,0 1.095,0.4862 1.095,1.0766 v 3.9234 h 16.527 c 0.593,0 1.081,0.5013 1.081,1.1099 v 9.651 c 0,2.8045 -2.208,5.0724 -4.939,5.0724 h -12.669 v 6.6667 h 22.985 c 0.648,0 1.182,0.4949 1.182,1.0958 v 12.2298 c 0,2.769 -2.415,5.008 -5.401,5.008 -6.621,0 -13.241,0 -19.861,0 C 97.7175,114.167 90,106.584 90,97.2296 Z"
         fill="#007644"
         id="path12" /></g><g
       id="g5"
       inkscape:label="tong"
       style="fill:#fe6a6a;stroke:none;stroke-opacity:1;stroke-width:6.02773972;stroke-dasharray:none;fill-opacity:1"
       transform="matrix(0.33179933,0,0,0.33179933,24.428286,3.0447783)"
       clip-path="url(#clipPath14)">
	
	
	<path
   d="M 426.209,10.334 C 419.545,3.67 410.682,0 401.253,0 c -9.43,0 -18.296,3.669 -24.97,10.335 L 247.801,138.82 c -2.929,2.929 -2.929,7.678 0,10.606 l 1.47,1.47 -110.168,110.169 -20.541,2.328 c -1.687,0.191 -3.259,0.949 -4.459,2.149 l -77.459,77.459 c -2.929,2.929 -2.929,7.678 0,10.606 l 46.291,46.291 c 1.407,1.407 3.314,2.197 5.304,2.197 1.99,0 3.896,-0.79 5.304,-2.197 l 77.459,-77.459 c 1.083,-1.083 1.809,-2.473 2.079,-3.982 l 3.497,-19.54 110.357,-110.358 0.186,0.186 c 1.407,1.407 3.314,2.197 5.304,2.197 1.99,0 3.896,-0.79 5.304,-2.197 l 90.94,-90.943 -57.389,99.404 -8.122,-4.689 c -3.586,-2.073 -8.173,-0.843 -10.245,2.745 -2.071,3.587 -0.842,8.174 2.745,10.245 l 1.324,0.765 -78.703,136.318 c -0.767,1.327 -1.107,2.857 -0.978,4.384 l 1.679,19.779 -49.845,86.334 -43.705,-25.233 7.499,-12.989 24.22,13.981 c 1.182,0.682 2.471,1.006 3.743,1.006 2.592,0 5.113,-1.346 6.502,-3.752 2.071,-3.587 0.842,-8.174 -2.745,-10.245 l -24.22,-13.981 34.712,-60.122 19.238,-7.565 c 1.579,-0.621 2.901,-1.76 3.75,-3.229 l 43.07,-74.6 c 2.071,-3.587 0.842,-8.174 -2.745,-10.245 -3.59,-2.072 -8.175,-0.842 -10.245,2.745 l -41.76,72.33 -19.238,7.565 c -1.579,0.622 -2.901,1.76 -3.75,3.23 l -39.764,68.873 c -0.019,0.033 -15.008,25.995 -15.008,25.995 -0.994,1.723 -1.265,3.77 -0.749,5.691 0.515,1.921 1.771,3.56 3.494,4.554 l 56.695,32.733 c 1.15,0.664 2.444,1.005 3.75,1.005 0.65,0 1.303,-0.084 1.941,-0.255 1.921,-0.515 3.56,-1.772 4.554,-3.495 l 54.771,-94.868 c 0.767,-1.327 1.107,-2.857 0.978,-4.384 l -1.679,-19.779 77.525,-134.279 0.303,0.175 c 1.15,0.664 2.444,1.005 3.75,1.005 0.65,0 1.303,-0.084 1.941,-0.255 1.921,-0.515 3.56,-1.772 4.554,-3.495 L 432.029,52.623 c 7.284,-13.392 5.493,-30.976 -5.82,-42.289 z M 164.306,289.977 c -1.083,1.083 -1.809,2.473 -2.079,3.982 l -3.497,19.54 -70.492,70.491 -35.685,-35.685 70.302,-70.302 20.541,-2.328 c 1.687,-0.191 3.259,-0.949 4.459,-2.149 l 112.022,-112.022 16.45,16.45 z M 415.603,49.654 292.424,172.836 l -0.181,-0.181 c -0.01,-0.01 -27.057,-27.057 -27.057,-27.057 -0.01,-0.01 -1.475,-1.475 -1.475,-1.475 L 386.887,20.944 C 390.725,17.111 395.826,15 401.253,15 c 5.423,0 10.519,2.11 14.35,5.941 7.917,7.916 7.916,20.797 0,28.713 z"
   id="path3"
   style="fill:#fe6a6a;fill-opacity:1;stroke:#813636;stroke-opacity:1;stroke-width:6.02773972;stroke-dasharray:none"
   transform="translate(-1.1022977e-6)" />
</g></g></svg>
